<mxfile host="app.diagrams.net" modified="2023-07-15T09:19:55.335Z" agent="Mozilla/5.0 (Windows NT 10.0; Win64; x64) AppleWebKit/537.36 (KHTML, like Gecko) Chrome/110.0.0.0 Safari/537.36" version="21.6.2" etag="YOC6OyO5Vdvnbg_V78-i" type="github">
  <diagram name="第 1 页" id="POabh04_YiBxMUQuRzFL">
    <mxGraphModel>
      <root>
        <mxCell id="0" />
        <mxCell id="1" parent="0" />
      </root>
    </mxGraphModel>
  </diagram>
</mxfile>
